<svg width="37" height="37" viewBox="0 0 37 37" fill="none" xmlns="http://www.w3.org/2000/svg">
<path d="M12.2721 18.2245H18.3469M18.3469 18.2245H24.4218M18.3469 18.2245V24.2993M18.3469 18.2245V12.1497M6.19727 25.5146V10.935C6.19727 9.23388 6.19727 8.38269 6.52833 7.73295C6.81953 7.16142 7.28386 6.69709 7.85539 6.40589C8.50512 6.07483 9.35631 6.07483 11.0574 6.07483H25.637C27.3381 6.07483 28.1883 6.07483 28.838 6.40589C29.4095 6.69709 29.8747 7.16142 30.1658 7.73295C30.4969 8.38269 30.4969 9.23324 30.4969 10.9344V25.514C30.4969 27.2151 30.4969 28.0657 30.1658 28.7154C29.8747 29.2869 29.4095 29.7522 28.838 30.0434C28.1889 30.3741 27.34 30.3741 25.6422 30.3741H11.0524C9.35464 30.3741 8.50449 30.3741 7.85539 30.0434C7.28386 29.7522 6.81953 29.2871 6.52833 28.7156C6.19727 28.0659 6.19727 27.2157 6.19727 25.5146Z" stroke="#225F61" stroke-width="3.87755" stroke-linecap="round" stroke-linejoin="round"/>
</svg>
