<svg width="30" height="30" viewBox="0 0 30 30" fill="none" xmlns="http://www.w3.org/2000/svg">
<path d="M15 -0.0292969C6.6992 -0.0292969 -0.0292969 6.6992 -0.0292969 15C-0.0292969 23.3008 6.6992 30.0293 15 30.0293C23.3008 30.0293 30.0293 23.3008 30.0293 15C30.0293 6.6992 23.3008 -0.0292969 15 -0.0292969ZM15 27.681C7.99629 27.681 2.31902 22.0037 2.31902 15C2.31902 7.99629 7.99629 2.31902 15 2.31902C22.0037 2.31902 27.681 7.99629 27.681 15C27.681 22.0037 22.0037 27.681 15 27.681Z" fill="#2F1F0C"/>
<path d="M7.8211 13.8644C7.27067 14.3726 7.41199 15.4697 8.13662 16.3173C8.86131 17.164 9.8942 17.4383 10.4437 16.9283C10.9932 16.4218 10.8519 15.323 10.1272 14.4772C9.40254 13.6314 8.36965 13.3561 7.8211 13.8644Z" fill="#2F1F0C"/>
<path d="M19.8535 14.2827C19.2086 15.1982 19.1683 16.3053 19.7627 16.7567C20.3562 17.2061 21.3598 16.8337 22.0037 15.9173C22.6477 15.0037 22.688 13.8974 22.0945 13.4452C21.501 12.9948 20.4966 13.3699 19.8535 14.2827Z" fill="#2F1F0C"/>
<path d="M13.2498 14.0698C14.2175 13.8368 14.7211 12.3911 14.3735 10.8409C14.0286 9.29064 12.9627 8.22289 11.9949 8.45586C11.0281 8.6907 10.5254 10.1364 10.8703 11.6867C11.2179 13.2351 12.2829 14.3029 13.2498 14.0698Z" fill="#2F1F0C"/>
<path d="M18.1088 8.45581C17.1419 8.22278 16.0769 9.2906 15.7302 10.8409C15.3834 12.3911 15.8861 13.8368 16.8548 14.0698C17.8207 14.3028 18.8866 13.235 19.2334 11.6866C19.5811 10.1364 19.0757 8.69066 18.1088 8.45581Z" fill="#2F1F0C"/>
<path d="M15 15.3816C12.6929 15.3816 10.961 19.0554 10.961 20.2709C10.961 23.2595 12.6929 20.1764 15 20.1764C17.308 20.1764 19.039 23.2595 19.039 20.2709C19.039 19.0554 17.308 15.3816 15 15.3816Z" fill="#2F1F0C"/>
</svg>
