<svg width="30" height="34" viewBox="0 0 30 34" fill="none" xmlns="http://www.w3.org/2000/svg">
<path d="M5 33.1058H25C26.3261 33.1058 27.5979 32.5922 28.5355 31.6779C29.4732 30.7637 30 29.5237 30 28.2308V8.73077C30 7.86882 29.6488 7.04217 29.0237 6.43268C28.3986 5.82318 27.5507 5.48077 26.6667 5.48077H23.3333V2.23077C23.3333 1.7998 23.1577 1.38647 22.8452 1.08173C22.5326 0.776979 22.1087 0.605774 21.6667 0.605774C21.2246 0.605774 20.8007 0.776979 20.4882 1.08173C20.1756 1.38647 20 1.7998 20 2.23077V5.48077H10V2.23077C10 1.7998 9.8244 1.38647 9.51184 1.08173C9.19928 0.776979 8.77536 0.605774 8.33333 0.605774C7.89131 0.605774 7.46738 0.776979 7.15482 1.08173C6.84226 1.38647 6.66667 1.7998 6.66667 2.23077V5.48077H3.33333C2.44928 5.48077 1.60143 5.82318 0.976311 6.43268C0.351189 7.04217 0 7.86882 0 8.73077V28.2308C0 29.5237 0.526784 30.7637 1.46447 31.6779C2.40215 32.5922 3.67392 33.1058 5 33.1058ZM3.33333 17.6683C3.33333 17.4528 3.42113 17.2461 3.57741 17.0938C3.73369 16.9414 3.94565 16.8558 4.16667 16.8558H25.8333C26.0543 16.8558 26.2663 16.9414 26.4226 17.0938C26.5789 17.2461 26.6667 17.4528 26.6667 17.6683V28.2308C26.6667 28.6618 26.4911 29.0751 26.1785 29.3798C25.866 29.6846 25.442 29.8558 25 29.8558H5C4.55797 29.8558 4.13405 29.6846 3.82149 29.3798C3.50893 29.0751 3.33333 28.6618 3.33333 28.2308V17.6683Z" fill="#2F1F0C"/>
</svg>
