<svg width="28" height="28" viewBox="0 0 28 28" fill="none" xmlns="http://www.w3.org/2000/svg">
<path d="M26.25 5H20V1.25C20 0.918479 19.8683 0.600537 19.6339 0.366116C19.3995 0.131696 19.0815 0 18.75 0H8.75C8.41848 0 8.10054 0.131696 7.86612 0.366116C7.6317 0.600537 7.5 0.918479 7.5 1.25V5H1.25C0.918479 5 0.600537 5.1317 0.366116 5.36612C0.131696 5.60054 0 5.91848 0 6.25C0 6.58152 0.131696 6.89946 0.366116 7.13388C0.600537 7.3683 0.918479 7.5 1.25 7.5H2.64625L5.01 26.405C5.04777 26.7073 5.19462 26.9853 5.42295 27.187C5.65128 27.3886 5.94538 27.4999 6.25 27.5H21.25C21.5546 27.4999 21.8487 27.3886 22.0771 27.187C22.3054 26.9853 22.4522 26.7073 22.49 26.405L24.8537 7.5H26.25C26.5815 7.5 26.8995 7.3683 27.1339 7.13388C27.3683 6.89946 27.5 6.58152 27.5 6.25C27.5 5.91848 27.3683 5.60054 27.1339 5.36612C26.8995 5.1317 26.5815 5 26.25 5ZM10 2.5H17.5V5H10V2.5ZM20.1463 25H7.35375L5.16625 7.5H22.3338L20.1463 25Z" fill="#612223"/>
</svg>
