<svg width="34" height="34" viewBox="0 0 34 34" fill="none" xmlns="http://www.w3.org/2000/svg">
<path fill-rule="evenodd" clip-rule="evenodd" d="M32.2022 1.51177C30.2495 -0.440846 27.0839 -0.440862 25.1312 1.51177L22.3315 4.31144L9.15486 17.488C8.94126 17.7017 8.78974 17.9694 8.71647 18.2624L7.04981 24.929C6.90781 25.497 7.07422 26.0979 7.48819 26.5117C7.90216 26.9257 8.50297 27.0922 9.07094 26.9502L15.7375 25.2835C16.0307 25.2102 16.2982 25.0587 16.5119 24.845L29.5927 11.7643L32.4882 8.86879C34.4409 6.91617 34.4409 3.75034 32.4882 1.79772L32.2022 1.51177ZM27.4882 3.86879C28.139 3.21792 29.1944 3.21792 29.8452 3.86879L30.1312 4.15474C30.782 4.80562 30.782 5.8609 30.1312 6.51177L28.437 8.20597L25.8447 5.51232L27.4882 3.86879ZM23.4872 7.86977L26.0795 10.5634L14.4814 22.1617L10.9573 23.0427L11.8383 19.5187L23.4872 7.86977ZM3.66671 10.3333C3.66671 9.41279 4.41291 8.66659 5.33337 8.66659H13.6667C14.5872 8.66659 15.3334 7.9204 15.3334 6.99992C15.3334 6.07945 14.5872 5.33325 13.6667 5.33325H5.33337C2.57196 5.33325 0.333374 7.57184 0.333374 10.3333V28.6665C0.333374 31.428 2.57196 33.6665 5.33337 33.6665H23.6667C26.4282 33.6665 28.6667 31.428 28.6667 28.6665V20.3332C28.6667 19.4129 27.9205 18.6665 27 18.6665C26.0795 18.6665 25.3334 19.4129 25.3334 20.3332V28.6665C25.3334 29.587 24.5872 30.3332 23.6667 30.3332H5.33337C4.41291 30.3332 3.66671 29.587 3.66671 28.6665V10.3333Z" fill="#2F1F0C"/>
</svg>
