<svg width="40" height="41" viewBox="0 0 40 41" fill="none" xmlns="http://www.w3.org/2000/svg">
<path d="M6.12097 24.4839V28.3246C6.13604 31.0245 7.3866 30.6049 8.31323 29.7946L13.6545 24.8776V27.3644C13.6545 29.6976 14.1818 30.2449 16.4796 30.2449H24.9548C24.9548 30.2449 29.8601 36.1258 29.8987 36.0865C30.6049 36.966 32.5175 36.6664 32.4883 35.0456V30.2449H35.3134C37.6205 30.2449 38.1385 29.6601 38.1385 27.3644V12.9621C38.1385 10.6577 37.5829 10.0816 35.3134 10.0816H25.8965V8.16129C25.8965 5.78971 25.4633 5.28082 23.0714 5.28082H3.2959C1.07351 5.28082 0.470825 5.7705 0.470825 8.16129V20.6433C0.470825 22.9851 0.988755 24.4839 3.2959 24.4839H6.12097ZM29.6632 27.3644V31.8973L25.8965 27.3644H17.4213C16.715 27.3644 16.4796 27.1052 16.4796 26.4042V13.9222C16.4796 13.2789 16.7715 12.9621 17.4213 12.9621H34.3717C35.0205 12.9621 35.3134 13.3173 35.3134 13.8646V26.4042C35.3134 27.0965 34.9753 27.3644 34.3717 27.3644H29.6632Z" fill="#225F61"/>
</svg>
