<svg width="30" height="31" viewBox="0 0 30 31" fill="none" xmlns="http://www.w3.org/2000/svg">
<path d="M0.0013125 7.51694C0.0013125 8.77737 0.452813 10.1628 1.02638 11.6328C1.59994 13.1029 2.33887 14.4883 2.91375 15.5378C4.473 18.3099 6.48244 21.0391 8.77931 23.306C11.0762 25.5729 13.7839 27.4636 16.8184 28.5977C18.5824 29.3112 20.3464 30.1094 22.3151 30.1094C23.2995 30.1094 24.6947 29.7318 25.9652 29.1849C27.1963 28.6393 28.3027 27.7995 28.7136 26.7917C28.8776 26.4141 29.0824 25.9102 29.2057 25.3216C29.3291 24.7761 29.4105 24.2292 29.4105 23.8516C29.4105 23.6419 29.4105 23.431 29.3698 23.3893C29.2464 23.1367 28.959 22.9271 28.6309 22.7174C27.8919 22.3398 27.7699 22.2135 26.6621 21.5417C25.5137 20.8698 24.3246 20.1132 23.2982 19.5677C22.806 19.2734 22.4779 19.1471 22.3545 19.1471C21.6982 19.1471 20.8779 20.0716 20.181 21.0794C19.4421 22.0872 18.6217 23.0117 18.0482 23.0117C17.7607 23.0117 17.4733 22.8854 17.1452 22.6758C16.8171 22.4662 16.4889 22.2982 16.2842 22.1719C12.6748 20.0716 10.2546 17.5951 8.20444 13.9414C7.95769 13.5208 7.38412 12.6393 7.38412 12.1771C7.38412 11.6315 8.12306 11.0013 8.86069 10.3294C9.55762 9.69919 10.2966 8.944 10.2966 8.0195C10.2966 7.89319 10.2139 7.51559 10.0498 6.97003C9.681 5.87756 9.18881 4.61847 8.778 3.40103C8.57325 2.81247 8.40919 2.39322 8.36719 2.18359C8.2845 2.05728 8.24381 1.88931 8.20312 1.67969C8.16244 1.47006 8.07975 1.30209 8.03906 1.13412C7.91569 0.756531 7.71094 0.46225 7.50619 0.294281C7.30144 0.209625 6.80925 0.0846558 6.31706 0.0416558C5.82487 0.0416558 5.25 0 5.00456 0C4.88119 0 4.71712 -4.54485e-07 4.55306 0.0416558H4.02019C2.70769 0.630218 1.764 1.806 1.06706 3.19141C0.410812 4.57681 0 6.13153 0 7.51694H0.0013125Z" fill="#225F61"/>
</svg>
