<svg width="53" height="53" viewBox="0 0 53 53" fill="none" xmlns="http://www.w3.org/2000/svg">
<path fill-rule="evenodd" clip-rule="evenodd" d="M33.1055 7.5H44.9989V19.3934L19.3934 44.9989L7.50002 33.1055L33.1055 7.5ZM27.8022 2.19671C29.2087 0.790163 31.1164 0 33.1055 0H52.4989V19.3934C52.4989 21.3825 51.7087 23.2902 50.3021 24.6967L24.6967 50.3021C21.7678 53.2313 17.019 53.2313 14.0901 50.3021L2.19669 38.4086C-0.732229 35.4799 -0.732233 30.7311 2.19669 27.8022L27.8022 2.19671ZM37.4989 18.75C39.57 18.75 41.2489 17.0711 41.2489 15C41.2489 12.9289 39.57 11.25 37.4989 11.25C35.4277 11.25 33.7489 12.9289 33.7489 15C33.7489 17.0711 35.4277 18.75 37.4989 18.75Z" fill="#2F1F0C"/>
</svg>
