<svg width="28" height="38" viewBox="0 0 28 38" fill="none" xmlns="http://www.w3.org/2000/svg">
<path d="M13.7476 0C6.16845 0 3.25e-06 6.17091 0 13.75C-4.75e-06 27.0859 12.9736 37.2241 12.9736 37.2241C13.4294 37.5871 14.0755 37.5871 14.5312 37.2241C14.5312 37.2241 27.5074 27.0859 27.5073 13.75C27.5073 6.17091 21.3267 0 13.7476 0ZM13.7476 7.50244C17.1845 7.50244 20.0049 10.313 20.0049 13.75C20.0049 17.187 17.1845 20.0049 13.7476 20.0049C10.3106 20.0049 7.49998 17.187 7.5 13.75C7.50001 10.313 10.3106 7.50244 13.7476 7.50244Z" fill="#2F1F0C"/>
</svg>
