<svg width="530" height="530" viewBox="0 0 530 530" fill="none" xmlns="http://www.w3.org/2000/svg">
<rect width="530" height="530" fill="#E0CF9F"/>
<path d="M387.62 283.329C395.265 292.693 393.675 304.143 393.676 314.25C393.676 342.082 357.466 349.875 338.813 349.875C320.159 349.875 283.95 342.082 283.95 314.25C283.95 304.143 282.36 292.693 290.005 283.329M387.62 283.329C386.283 281.691 384.663 280.117 382.703 278.625M387.62 283.329C392.433 286.202 393.662 275.452 393.676 271.945V258.587C393.676 247.009 385.995 243.001 379.412 243.001C372.828 243.001 359.66 254.133 355.271 254.133C350.005 254.133 348.99 253.02 338.813 253.02C328.636 253.02 327.621 254.133 322.354 254.133C317.965 254.133 304.798 243 298.214 243C291.631 243 283.95 247.008 283.95 258.586V271.945C283.963 275.452 285.193 286.202 290.005 283.329M290.005 283.329C291.342 281.691 292.962 280.117 294.923 278.625" stroke="#2F1F0C" stroke-width="10" stroke-linecap="round"/>
<path d="M344.49 321.375C344.49 322.605 342.007 323.602 338.945 323.602C335.884 323.602 333.401 322.605 333.401 321.375C333.401 320.145 335.884 319.148 338.945 319.148C342.007 319.148 344.49 320.145 344.49 321.375Z" stroke="#2F1F0C" stroke-width="10"/>
<path d="M362.875 304.231C362.875 307.305 361.386 309.797 359.548 309.797C357.711 309.797 356.222 307.305 356.222 304.231C356.222 301.156 357.711 298.664 359.548 298.664C361.386 298.664 362.875 301.156 362.875 304.231Z" stroke="#2F1F0C" stroke-width="10"/>
<path d="M321.625 304.231C321.625 307.305 320.136 309.797 318.299 309.797C316.461 309.797 314.972 307.305 314.972 304.231C314.972 301.156 316.461 298.664 318.299 298.664C320.136 298.664 321.625 301.156 321.625 304.231Z" stroke="#2F1F0C" stroke-width="10"/>
<path d="M407.565 317.59C404.239 315.363 389.823 309.797 384.279 309.797" stroke="#2F1F0C" stroke-width="10" stroke-linecap="round"/>
<path d="M396.474 335.403C393.148 333.175 385.385 327.609 379.841 327.609" stroke="#2F1F0C" stroke-width="10" stroke-linecap="round"/>
<path d="M270.063 317.59C273.389 315.363 287.805 309.797 293.349 309.797" stroke="#2F1F0C" stroke-width="10" stroke-linecap="round"/>
<path d="M281.151 335.403C284.477 333.175 292.239 327.609 297.784 327.609" stroke="#2F1F0C" stroke-width="10" stroke-linecap="round"/>
<path fill-rule="evenodd" clip-rule="evenodd" d="M127.995 224.073C139.46 226.027 151.452 231.898 160.496 239.806C166.491 237.767 172.919 236.664 179.594 236.664C186.313 236.664 192.783 237.782 198.812 239.847C208.072 232.072 219.51 225.982 231.134 224.082C233.608 223.687 236.182 225.045 237.312 227.498C241.847 239.132 242.001 253.004 239.212 265.117L239.169 265.305C238.421 268.555 237.455 272.756 234.355 274.169C236.66 280.321 237.927 286.993 237.927 293.997C237.927 311.556 231.288 329.621 225.334 345.818L224.732 347.457C221.117 357.305 213.028 364.088 203.656 365.978L190.414 368.649C186.331 369.472 182.255 367.873 179.594 364.65C176.933 367.873 172.858 369.472 168.774 368.649L155.532 365.978C146.16 364.088 138.072 357.305 134.456 347.457L133.854 345.818C127.901 329.621 121.261 311.556 121.261 293.997C121.261 286.993 122.529 280.321 124.833 274.169C121.73 272.755 120.789 268.656 120.041 265.396L119.977 265.117C117.312 253.544 116.8 238.544 121.877 227.498C123 225.058 125.513 223.655 127.995 224.073ZM148.005 245.788C141.416 249.969 135.697 255.444 131.257 261.879C129.519 254.174 129.499 245.604 131.031 237.852C136.943 239.706 142.728 242.335 148.005 245.788ZM227.931 261.879C223.521 255.486 217.847 250.04 211.312 245.87C216.556 242.368 222.202 239.562 228.141 237.77C229.693 245.544 229.675 254.149 227.931 261.879ZM161.24 252.922C166.858 250.616 173.059 249.331 179.594 249.331C186.13 249.331 192.33 250.616 197.948 252.922C214.917 259.886 226.261 275.92 226.261 293.997C226.261 309.292 220.364 325.253 215.097 339.505C214.692 340.603 214.289 341.691 213.895 342.767C211.847 348.345 207.191 352.382 201.525 353.524L188.283 356.195L184.914 348.065C183.972 345.792 181.889 344.33 179.594 344.33C177.299 344.33 175.217 345.792 174.275 348.065L170.905 356.195L157.663 353.524C151.997 352.382 147.341 348.345 145.294 342.767C144.899 341.693 144.498 340.606 144.093 339.51C138.827 325.258 132.927 309.292 132.927 293.997C132.927 275.92 144.271 259.886 161.24 252.922ZM170.844 318.997C168.634 318.997 166.615 320.352 165.626 322.498C164.638 324.644 164.852 327.211 166.177 329.13L174.927 341.797C176.029 343.392 177.758 344.33 179.594 344.33C181.43 344.33 183.159 343.392 184.261 341.797L193.011 329.13C194.337 327.211 194.549 324.644 193.561 322.498C192.573 320.352 190.554 318.997 188.344 318.997H170.844ZM165.718 288.099C165.718 293.346 161.801 297.599 156.968 297.599C152.136 297.599 148.218 293.346 148.218 288.099C148.218 282.852 152.136 278.599 156.968 278.599C161.801 278.599 165.718 282.852 165.718 288.099ZM202.927 296.83C207.76 296.83 211.677 292.578 211.677 287.33C211.677 282.084 207.76 277.831 202.927 277.831C198.095 277.831 194.177 282.084 194.177 287.33C194.177 292.578 198.095 296.83 202.927 296.83Z" fill="#2F1F0C"/>
<path d="M127.928 159.936V163.104C130.736 163.176 132.968 163.668 134.624 164.58C136.304 165.468 137.504 166.62 138.224 168.036C138.968 169.452 139.34 171 139.34 172.68C139.34 173.76 139.148 174.864 138.764 175.992C138.404 177.12 137.78 178.164 136.892 179.124C136.028 180.06 134.864 180.828 133.4 181.428C131.936 182.028 130.112 182.352 127.928 182.4V186.36H123.032V182.4C120.824 182.352 118.976 182.028 117.488 181.428C116.024 180.828 114.86 180.048 113.996 179.088C113.132 178.128 112.52 177.096 112.16 175.992C111.8 174.864 111.62 173.76 111.62 172.68C111.62 171.432 111.824 170.244 112.232 169.116C112.64 167.988 113.288 166.98 114.176 166.092C115.064 165.204 116.24 164.496 117.704 163.968C119.168 163.44 120.944 163.152 123.032 163.104V159.936H127.928ZM123.032 167.352C121.472 167.424 120.224 167.7 119.288 168.18C118.376 168.636 117.716 169.248 117.308 170.016C116.924 170.784 116.732 171.66 116.732 172.644C116.732 173.724 116.948 174.672 117.38 175.488C117.836 176.28 118.52 176.916 119.432 177.396C120.368 177.852 121.568 178.116 123.032 178.188V167.352ZM127.928 178.188C129.392 178.116 130.58 177.852 131.492 177.396C132.428 176.916 133.112 176.28 133.544 175.488C134 174.672 134.228 173.724 134.228 172.644C134.228 171.66 134.024 170.784 133.616 170.016C133.232 169.248 132.572 168.636 131.636 168.18C130.724 167.7 129.488 167.424 127.928 167.352V178.188ZM167.541 173.112C167.541 175.104 167.289 176.916 166.785 178.548C166.305 180.156 165.561 181.548 164.553 182.724C163.569 183.9 162.297 184.8 160.737 185.424C159.201 186.048 157.389 186.36 155.301 186.36C153.213 186.36 151.389 186.048 149.829 185.424C148.293 184.776 147.021 183.876 146.013 182.724C145.029 181.548 144.285 180.144 143.781 178.512C143.301 176.88 143.061 175.068 143.061 173.076C143.061 170.412 143.493 168.096 144.357 166.128C145.245 164.16 146.589 162.636 148.389 161.556C150.213 160.452 152.529 159.9 155.337 159.9C158.121 159.9 160.413 160.452 162.213 161.556C164.013 162.636 165.345 164.172 166.209 166.164C167.097 168.132 167.541 170.448 167.541 173.112ZM148.785 173.112C148.785 174.912 149.013 176.46 149.469 177.756C149.925 179.052 150.633 180.048 151.593 180.744C152.553 181.44 153.789 181.788 155.301 181.788C156.861 181.788 158.109 181.44 159.045 180.744C160.005 180.048 160.701 179.052 161.133 177.756C161.589 176.46 161.817 174.912 161.817 173.112C161.817 170.4 161.313 168.276 160.305 166.74C159.297 165.204 157.641 164.436 155.337 164.436C153.801 164.436 152.553 164.784 151.593 165.48C150.633 166.176 149.925 167.172 149.469 168.468C149.013 169.764 148.785 171.312 148.785 173.112ZM181.675 186H176.239V164.832H169.255V160.296H188.659V164.832H181.675V186ZM215.248 173.112C215.248 175.104 214.996 176.916 214.492 178.548C214.012 180.156 213.268 181.548 212.26 182.724C211.276 183.9 210.004 184.8 208.444 185.424C206.908 186.048 205.096 186.36 203.008 186.36C200.92 186.36 199.096 186.048 197.536 185.424C196 184.776 194.728 183.876 193.72 182.724C192.736 181.548 191.992 180.144 191.488 178.512C191.008 176.88 190.768 175.068 190.768 173.076C190.768 170.412 191.2 168.096 192.064 166.128C192.952 164.16 194.296 162.636 196.096 161.556C197.92 160.452 200.236 159.9 203.044 159.9C205.828 159.9 208.12 160.452 209.92 161.556C211.72 162.636 213.052 164.172 213.916 166.164C214.804 168.132 215.248 170.448 215.248 173.112ZM196.492 173.112C196.492 174.912 196.72 176.46 197.176 177.756C197.632 179.052 198.34 180.048 199.3 180.744C200.26 181.44 201.496 181.788 203.008 181.788C204.568 181.788 205.816 181.44 206.752 180.744C207.712 180.048 208.408 179.052 208.84 177.756C209.296 176.46 209.524 174.912 209.524 173.112C209.524 170.4 209.02 168.276 208.012 166.74C207.004 165.204 205.348 164.436 203.044 164.436C201.508 164.436 200.26 164.784 199.3 165.48C198.34 166.176 197.632 167.172 197.176 168.468C196.72 169.764 196.492 171.312 196.492 173.112ZM229.572 186V160.296H249.912V186H244.476V164.832H235.008V186H229.572ZM256.396 160.296H261.292V172.716C261.292 173.316 261.28 173.988 261.256 174.732C261.232 175.476 261.208 176.208 261.184 176.928C261.16 177.624 261.136 178.236 261.112 178.764C261.088 179.268 261.064 179.616 261.04 179.808H261.148L273.028 160.296H279.544V186H274.684V173.652C274.684 173.004 274.696 172.296 274.72 171.528C274.744 170.736 274.768 169.98 274.792 169.26C274.84 168.54 274.876 167.916 274.9 167.388C274.948 166.836 274.984 166.476 275.008 166.308H274.864L262.948 186H256.396V160.296ZM295.933 186H290.497V164.832H283.513V160.296H302.917V164.832H295.933V186ZM329.506 173.112C329.506 175.104 329.254 176.916 328.75 178.548C328.27 180.156 327.526 181.548 326.518 182.724C325.534 183.9 324.262 184.8 322.702 185.424C321.166 186.048 319.354 186.36 317.266 186.36C315.178 186.36 313.354 186.048 311.794 185.424C310.258 184.776 308.986 183.876 307.978 182.724C306.994 181.548 306.25 180.144 305.746 178.512C305.266 176.88 305.026 175.068 305.026 173.076C305.026 170.412 305.458 168.096 306.322 166.128C307.21 164.16 308.554 162.636 310.354 161.556C312.178 160.452 314.494 159.9 317.302 159.9C320.086 159.9 322.378 160.452 324.178 161.556C325.978 162.636 327.31 164.172 328.174 166.164C329.062 168.132 329.506 170.448 329.506 173.112ZM310.75 173.112C310.75 174.912 310.978 176.46 311.434 177.756C311.89 179.052 312.598 180.048 313.558 180.744C314.518 181.44 315.754 181.788 317.266 181.788C318.826 181.788 320.074 181.44 321.01 180.744C321.97 180.048 322.666 179.052 323.098 177.756C323.554 176.46 323.782 174.912 323.782 173.112C323.782 170.4 323.278 168.276 322.27 166.74C321.262 165.204 319.606 164.436 317.302 164.436C315.766 164.436 314.518 164.784 313.558 165.48C312.598 166.176 311.89 167.172 311.434 168.468C310.978 169.764 310.75 171.312 310.75 173.112ZM345.702 186L339.51 165.84H339.366C339.39 166.32 339.426 167.04 339.474 168C339.522 168.96 339.57 169.992 339.618 171.096C339.666 172.176 339.69 173.16 339.69 174.048V186H334.83V160.296H342.246L348.33 179.952H348.438L354.882 160.296H362.298V186H357.222V173.832C357.222 173.016 357.234 172.08 357.258 171.024C357.306 169.968 357.342 168.972 357.366 168.036C357.414 167.076 357.45 166.356 357.474 165.876H357.33L350.706 186H345.702ZM392.947 181.68V193.488H387.691V186H368.791V160.296H374.227V181.464H383.695V160.296H389.131V181.68H392.947ZM412.648 186L410.776 179.88H401.416L399.544 186H393.676L402.748 160.188H409.408L418.516 186H412.648ZM407.608 169.332C407.488 168.924 407.332 168.408 407.14 167.784C406.948 167.16 406.756 166.524 406.564 165.876C406.372 165.228 406.216 164.664 406.096 164.184C405.976 164.664 405.808 165.264 405.592 165.984C405.4 166.68 405.208 167.352 405.016 168C404.848 168.624 404.716 169.068 404.62 169.332L402.784 175.308H409.48L407.608 169.332Z" fill="#2F1F0C"/>
</svg>
