<svg width="30" height="31" viewBox="0 0 30 31" fill="none" xmlns="http://www.w3.org/2000/svg">
<path d="M0.0013125 8.01327C0.0013125 9.27371 0.452812 10.6591 1.02638 12.1292C1.59994 13.5992 2.33888 14.9846 2.91375 16.0341C4.473 18.8063 6.48244 21.5354 8.77931 23.8023C11.0762 26.0692 13.7839 27.9599 16.8184 29.094C18.5824 29.8076 20.3464 30.6057 22.3151 30.6057C23.2995 30.6057 24.6947 30.2281 25.9652 29.6812C27.1963 29.1357 28.3027 28.2958 28.7136 27.288C28.8776 26.9104 29.0824 26.4065 29.2057 25.818C29.3291 25.2724 29.4105 24.7255 29.4105 24.3479C29.4105 24.1383 29.4105 23.9273 29.3698 23.8856C29.2464 23.633 28.959 23.4234 28.6309 23.2138C27.8919 22.8362 27.7699 22.7099 26.6621 22.038C25.5137 21.3661 24.3246 20.6096 23.2982 20.064C22.806 19.7697 22.4779 19.6434 22.3545 19.6434C21.6982 19.6434 20.8779 20.5679 20.181 21.5757C19.4421 22.5836 18.6217 23.5081 18.0482 23.5081C17.7607 23.5081 17.4733 23.3817 17.1452 23.1721C16.8171 22.9625 16.4889 22.7945 16.2842 22.6682C12.6748 20.5679 10.2546 18.0914 8.20444 14.4377C7.95769 14.0171 7.38412 13.1356 7.38412 12.6734C7.38412 12.1278 8.12306 11.4976 8.86069 10.8257C9.55762 10.1955 10.2966 9.44034 10.2966 8.51584C10.2966 8.38952 10.2139 8.01193 10.0498 7.46637C9.681 6.3739 9.18881 5.11481 8.778 3.89737C8.57325 3.30881 8.40919 2.88956 8.36719 2.67993C8.2845 2.55362 8.24381 2.38565 8.20312 2.17603C8.16244 1.9664 8.07975 1.79843 8.03906 1.63046C7.91569 1.25287 7.71094 0.958588 7.50619 0.790619C7.30144 0.705963 6.80925 0.580994 6.31706 0.537994C5.82487 0.537994 5.25 0.496338 5.00456 0.496338C4.88119 0.496338 4.71712 0.496337 4.55306 0.537994H4.02019C2.70769 1.12656 1.764 2.30234 1.06706 3.68774C0.410812 5.07315 0 6.62787 0 8.01327H0.0013125Z" fill="#2F1F0C"/>
</svg>
