<svg width="24" height="24" viewBox="0 0 24 24" fill="none" xmlns="http://www.w3.org/2000/svg">
<g clip-path="url(#clip0_1_26)">
<path d="M22.5053 19.2465C22.5053 19.2465 19.3908 16.5223 18.6458 15.7782C17.5524 14.6904 17.1149 14.1666 17.5009 13.2821C19.1892 9.83867 18.6053 5.56395 15.7415 2.70104C12.141 -0.900265 6.30181 -0.900265 2.70092 2.70104C-0.89998 6.3028 -0.89998 12.1403 2.70092 15.7425C5.56296 18.6045 9.839 19.1885 13.2811 17.5006C14.1657 17.115 14.6908 17.5525 15.7781 18.6464C16.5226 19.3909 19.2455 22.5059 19.2455 22.5059C20.6582 23.9178 21.7452 23.0489 22.3976 22.3973C23.0488 21.7452 23.9181 20.6588 22.5053 19.2465ZM12.9968 12.9964C10.9111 15.0808 7.53088 15.0808 5.44604 12.9964C3.36125 10.9121 3.36125 7.531 5.44604 5.44662C7.53088 3.36224 10.9111 3.36224 12.9968 5.44662C15.0816 7.531 15.0816 10.9121 12.9968 12.9964Z" fill="#225F61"/>
</g>
<defs>
<clipPath id="clip0_1_26">
<rect width="23.2653" height="23.2653" fill="white"/>
</clipPath>
</defs>
</svg>
