<svg width="197" height="48" viewBox="0 0 197 48" fill="none" xmlns="http://www.w3.org/2000/svg">
<rect width="196.578" height="47.8163" rx="21.2517" fill="#225F61"/>
<path d="M32.3449 31H29.1359V24.4545H23.1217V31H19.9127V15.8263H23.1217V21.7768H29.1359V15.8263H32.3449V31ZM49.9338 23.3919C49.9338 24.5678 49.785 25.6375 49.4875 26.6009C49.2042 27.5501 48.765 28.3719 48.1699 29.0661C47.589 29.7603 46.8381 30.2916 45.9172 30.66C45.0105 31.0283 43.9408 31.2125 42.7082 31.2125C41.4756 31.2125 40.3989 31.0283 39.478 30.66C38.5712 30.2774 37.8203 29.7462 37.2253 29.0661C36.6444 28.3719 36.2052 27.5431 35.9077 26.5797C35.6243 25.6162 35.4827 24.5466 35.4827 23.3706C35.4827 21.798 35.7377 20.4308 36.2477 19.2691C36.7719 18.1073 37.5653 17.2077 38.6279 16.5701C39.7047 15.9184 41.0719 15.5925 42.7295 15.5925C44.3729 15.5925 45.726 15.9184 46.7886 16.5701C47.8511 17.2077 48.6375 18.1144 49.1475 19.2903C49.6717 20.4521 49.9338 21.8193 49.9338 23.3919ZM38.8617 23.3919C38.8617 24.4545 38.9963 25.3683 39.2655 26.1334C39.5346 26.8984 39.9526 27.4864 40.5193 27.8973C41.086 28.3081 41.8157 28.5136 42.7082 28.5136C43.6291 28.5136 44.3659 28.3081 44.9184 27.8973C45.4851 27.4864 45.896 26.8984 46.151 26.1334C46.4202 25.3683 46.5548 24.4545 46.5548 23.3919C46.5548 21.7909 46.2573 20.5371 45.6622 19.6304C45.0672 18.7236 44.0896 18.2702 42.7295 18.2702C41.8227 18.2702 41.086 18.4757 40.5193 18.8865C39.9526 19.2974 39.5346 19.8854 39.2655 20.6504C38.9963 21.4155 38.8617 22.3293 38.8617 23.3919ZM57.7948 15.8263C59.1407 15.8263 60.267 15.9538 61.1738 16.2088C62.0947 16.4497 62.7818 16.8535 63.2352 17.4202C63.7027 17.9727 63.9365 18.7236 63.9365 19.6729C63.9365 20.2396 63.8444 20.7567 63.6602 21.2242C63.4761 21.6918 63.2069 22.0743 62.8527 22.3718C62.5126 22.6693 62.0947 22.8606 61.5988 22.9456V23.0519C62.1089 23.151 62.5693 23.3281 62.9802 23.5832C63.391 23.8382 63.7169 24.2065 63.9578 24.6883C64.1986 25.17 64.319 25.8075 64.319 26.6009C64.319 27.5218 64.0924 28.3152 63.639 28.9811C63.1998 29.6328 62.5622 30.1358 61.7263 30.49C60.8904 30.83 59.8987 31 58.7511 31H53.0769V15.8263H57.7948ZM58.156 21.8405C59.0911 21.8405 59.7358 21.6918 60.09 21.3942C60.4583 21.0967 60.6425 20.6646 60.6425 20.0979C60.6425 19.517 60.43 19.0991 60.0049 18.844C59.5799 18.589 58.9069 18.4615 57.986 18.4615H56.2859V21.8405H58.156ZM56.2859 24.3907V28.3435H58.3898C59.3532 28.3435 60.0262 28.1594 60.4087 27.791C60.7913 27.4085 60.9825 26.9055 60.9825 26.2821C60.9825 25.8996 60.8975 25.5667 60.7275 25.2833C60.5717 24.9999 60.2954 24.7803 59.8987 24.6245C59.502 24.4686 58.9636 24.3907 58.2836 24.3907H56.2859ZM76.6424 31L75.5373 27.3872H70.0118L68.9067 31H65.4427L70.7981 15.7625H74.7297L80.1064 31H76.6424ZM73.6671 21.1605C73.5963 20.9196 73.5042 20.615 73.3908 20.2466C73.2775 19.8783 73.1642 19.5028 73.0508 19.1203C72.9375 18.7378 72.8454 18.4048 72.7745 18.1215C72.7037 18.4048 72.6045 18.759 72.477 19.1841C72.3637 19.5949 72.2503 19.9916 72.137 20.3742C72.0378 20.7425 71.9599 21.0046 71.9032 21.1605L70.8194 24.6883H74.7722L73.6671 21.1605ZM87.1286 25.177L83.5795 31H80.0093L84.3233 24.327C83.9125 24.157 83.5016 23.909 83.0907 23.5832C82.6799 23.2431 82.3399 22.7969 82.0707 22.2443C81.8015 21.6776 81.6669 20.9834 81.6669 20.1616C81.6669 18.759 82.1698 17.6894 83.1758 16.9526C84.1817 16.2017 85.5914 15.8263 87.4048 15.8263H92.3352V31H89.1262V25.177H87.1286ZM87.5323 18.4615C86.9798 18.4615 86.5052 18.5253 86.1085 18.6528C85.726 18.7803 85.4284 18.9857 85.2159 19.2691C85.0176 19.5524 84.9184 19.9279 84.9184 20.3954C84.9184 21.0613 85.138 21.5926 85.5772 21.9893C86.0306 22.3718 86.7106 22.5631 87.6174 22.5631H89.1262V18.4615H87.5323ZM104.96 23.1156L99.8591 15.8263H103.174L108.084 23.1794V15.8263H111.08V23.1794L115.989 15.8263H119.304L114.204 23.1156L119.602 31H116.159L111.08 23.3069V31H108.084V23.3069L103.004 31H99.5616L104.96 23.1156ZM121.522 15.8263H124.412V23.1581C124.412 23.5123 124.405 23.909 124.391 24.3482C124.377 24.7874 124.363 25.2195 124.349 25.6446C124.335 26.0554 124.32 26.4167 124.306 26.7284C124.292 27.0259 124.278 27.2314 124.264 27.3447H124.327L131.341 15.8263H135.187V31H132.318V23.7107C132.318 23.3281 132.325 22.9102 132.339 22.4568C132.354 21.9893 132.368 21.543 132.382 21.118C132.41 20.6929 132.431 20.3246 132.446 20.0129C132.474 19.687 132.495 19.4745 132.509 19.3753H132.424L125.39 31H121.522V15.8263ZM149.495 19.3753C149.495 20.3954 149.133 21.2171 148.411 21.8405C147.688 22.4639 146.767 22.8535 145.648 23.0094V23.0731C147.036 23.2148 148.099 23.6044 148.836 24.242C149.587 24.8653 149.962 25.68 149.962 26.6859C149.962 27.5643 149.721 28.3506 149.24 29.0448C148.758 29.7249 148.042 30.2562 147.093 30.6387C146.144 31.0213 144.968 31.2125 143.565 31.2125C142.418 31.2125 141.398 31.1417 140.505 31C139.627 30.8583 138.862 30.6529 138.21 30.3837V27.6847C138.649 27.8973 139.145 28.0814 139.698 28.2373C140.25 28.379 140.81 28.4923 141.376 28.5773C141.943 28.6481 142.467 28.6836 142.949 28.6836C144.295 28.6836 145.266 28.4923 145.861 28.1098C146.47 27.7131 146.774 27.1605 146.774 26.4521C146.774 25.7296 146.335 25.2054 145.457 24.8795C144.578 24.5395 143.395 24.3695 141.908 24.3695H140.484V21.8618H141.759C142.963 21.8618 143.898 21.7839 144.564 21.628C145.23 21.4722 145.698 21.2455 145.967 20.948C146.236 20.6504 146.371 20.2962 146.371 19.8854C146.371 19.3612 146.137 18.9503 145.669 18.6528C145.216 18.3411 144.529 18.1852 143.608 18.1852C142.829 18.1852 142.092 18.2986 141.398 18.5253C140.718 18.7519 140.08 19.0495 139.485 19.4178L138.082 17.2714C138.607 16.9314 139.159 16.6409 139.74 16.4001C140.335 16.1451 140.987 15.9538 141.695 15.8263C142.404 15.6846 143.19 15.6138 144.054 15.6138C145.202 15.6138 146.179 15.7767 146.987 16.1026C147.794 16.4284 148.411 16.8747 148.836 17.4414C149.275 17.994 149.495 18.6386 149.495 19.3753ZM165.23 31H162.021V24.4545H156.007V31H152.798V15.8263H156.007V21.7768H162.021V15.8263H165.23V31ZM169.048 31V15.8263H172.257V21.6493H173.532C174.963 21.6493 176.132 21.8476 177.039 22.2443C177.96 22.641 178.64 23.1865 179.079 23.8807C179.518 24.5749 179.738 25.3683 179.738 26.2609C179.738 27.2526 179.518 28.1027 179.079 28.8111C178.64 29.5195 177.96 30.0649 177.039 30.4475C176.118 30.8158 174.928 31 173.468 31H169.048ZM173.341 28.3648C174.318 28.3648 175.083 28.2089 175.636 27.8973C176.203 27.5856 176.486 27.0401 176.486 26.2609C176.486 25.7225 176.344 25.3116 176.061 25.0283C175.792 24.7449 175.402 24.5537 174.892 24.4545C174.396 24.3411 173.794 24.2845 173.086 24.2845H172.257V28.3648H173.341Z" fill="white"/>
</svg>
