<svg width="530" height="530" viewBox="0 0 530 530" fill="none" xmlns="http://www.w3.org/2000/svg">
<rect width="530" height="530" fill="#E0CF9F"/>
<g clip-path="url(#clip0_25_21)">
<path d="M325.097 273.765C336.773 261.478 344.687 245.885 347.843 228.947C350.999 212.009 349.256 194.481 342.834 178.567C336.412 162.653 325.597 149.063 311.748 139.505C297.899 129.947 281.635 124.847 265 124.847C248.365 124.847 232.101 129.947 218.252 139.505C204.404 149.063 193.589 162.653 187.166 178.567C180.744 194.481 179.001 212.009 182.157 228.947C185.313 245.885 193.227 261.478 204.903 273.765C182.863 282.751 163.935 298.399 150.578 318.681C137.221 338.962 130.052 362.938 130 387.498C129.999 389.797 130.434 392.073 131.282 394.197C132.13 396.32 133.373 398.25 134.94 399.875C136.507 401.501 138.368 402.79 140.416 403.669C142.464 404.548 144.659 404.999 146.875 404.998H383.125C385.342 404.999 387.536 404.548 389.584 403.669C391.632 402.79 393.493 401.501 395.06 399.875C396.628 398.25 397.871 396.32 398.718 394.197C399.566 392.073 400.001 389.797 400 387.498C399.949 362.938 392.779 338.962 379.422 318.681C366.065 298.399 347.138 282.751 325.097 273.765ZM265 159.998C275.013 159.998 284.801 163.077 293.126 168.846C301.451 174.615 307.94 182.814 311.772 192.407C315.603 202 316.606 212.556 314.652 222.74C312.699 232.924 307.877 242.279 300.797 249.621C293.717 256.963 284.697 261.964 274.877 263.989C265.056 266.015 254.877 264.975 245.627 261.002C236.376 257.028 228.47 250.299 222.907 241.666C217.344 233.032 214.375 222.882 214.375 212.498C214.39 198.579 219.728 185.234 229.219 175.392C238.71 165.55 251.578 160.014 265 159.998ZM165.431 369.998C169.352 350.249 179.717 332.504 194.779 319.754C209.842 307.004 228.682 300.027 248.125 299.998H281.875C301.319 300.027 320.158 307.004 335.221 319.754C350.283 332.504 360.648 350.249 364.569 369.998H165.431Z" fill="#2F1F0C"/>
</g>
<defs>
<clipPath id="clip0_25_21">
<rect width="270" height="280" fill="white" transform="translate(130 125)"/>
</clipPath>
</defs>
</svg>
