<svg width="33" height="34" viewBox="0 0 33 34" fill="none" xmlns="http://www.w3.org/2000/svg">
<path d="M23.9029 18.0809C25.3115 16.6515 26.2662 14.8377 26.6469 12.8673C27.0276 10.897 26.8174 8.85803 26.0426 7.00681C25.2679 5.15559 23.9632 3.57469 22.2926 2.46283C20.622 1.35097 18.6599 0.757751 16.6531 0.757751C14.6464 0.757751 12.6843 1.35097 11.0137 2.46283C9.34309 3.57469 8.03841 5.15559 7.26367 7.00681C6.48893 8.85803 6.27871 10.897 6.65942 12.8673C7.04013 14.8377 7.99478 16.6515 9.40339 18.0809C6.74449 19.1261 4.46118 20.9465 2.84987 23.3057C1.23856 25.6649 0.373655 28.454 0.367432 31.311C0.36728 31.5784 0.419832 31.8432 0.522083 32.0902C0.624333 32.3373 0.774277 32.5617 0.963341 32.7508C1.1524 32.9399 1.37688 33.0898 1.62393 33.1921C1.87099 33.2943 2.13577 33.3469 2.40315 33.3467H30.9031C31.1705 33.3469 31.4353 33.2943 31.6824 33.1921C31.9294 33.0898 32.1539 32.9399 32.343 32.7508C32.532 32.5617 32.682 32.3373 32.7842 32.0902C32.8865 31.8432 32.939 31.5784 32.9389 31.311C32.9326 28.454 32.0677 25.6649 30.4564 23.3057C28.8451 20.9465 26.5618 19.1261 23.9029 18.0809ZM16.6531 4.84671C17.861 4.84671 19.0418 5.20489 20.0461 5.87595C21.0504 6.54701 21.8332 7.50082 22.2954 8.61675C22.7576 9.73269 22.8786 10.9606 22.6429 12.1453C22.4073 13.33 21.8256 14.4182 20.9715 15.2723C20.1174 16.1264 19.0293 16.708 17.8446 16.9437C16.6599 17.1793 15.432 17.0584 14.316 16.5961C13.2001 16.1339 12.2463 15.3511 11.5752 14.3468C10.9042 13.3425 10.546 12.1617 10.546 10.9539C10.5478 9.33469 11.1918 7.78236 12.3367 6.63744C13.4817 5.49251 15.034 4.84851 16.6531 4.84671ZM4.64165 29.2753C5.11466 26.9779 6.36501 24.9138 8.18207 23.4306C9.99914 21.9474 12.2719 21.1357 14.6174 21.1324H18.6889C21.0344 21.1357 23.3072 21.9474 25.1242 23.4306C26.9413 24.9138 28.1916 26.9779 28.6646 29.2753H4.64165Z" fill="#2F1F0C"/>
</svg>
