<svg width="29" height="32" viewBox="0 0 29 32" fill="none" xmlns="http://www.w3.org/2000/svg">
<path d="M20.9548 16.5931C22.209 15.2327 23.059 13.5064 23.3979 11.6311C23.7369 9.7558 23.5497 7.81525 22.8599 6.05334C22.1701 4.29144 21.0085 2.78681 19.5211 1.72859C18.0336 0.670368 16.2868 0.105774 14.5 0.105774C12.7132 0.105774 10.9664 0.670368 9.47892 1.72859C7.99148 2.78681 6.82986 4.29144 6.14007 6.05334C5.45028 7.81525 5.26311 9.7558 5.60208 11.6311C5.94104 13.5064 6.79102 15.2327 8.04517 16.5931C5.67782 17.5879 3.64487 19.3205 2.21024 21.5659C0.775608 23.8113 0.00554097 26.4658 2.91364e-07 29.185C-0.000134723 29.4394 0.0466548 29.6914 0.137694 29.9266C0.228732 30.1617 0.362235 30.3754 0.530568 30.5553C0.698901 30.7352 0.898763 30.878 1.11873 30.9753C1.33869 31.0726 1.57444 31.1226 1.8125 31.1225H27.1875C27.4256 31.1226 27.6613 31.0726 27.8813 30.9753C28.1012 30.878 28.3011 30.7352 28.4694 30.5553C28.6378 30.3754 28.7713 30.1617 28.8623 29.9266C28.9533 29.6914 29.0001 29.4394 29 29.185C28.9945 26.4658 28.2244 23.8113 26.7898 21.5659C25.3551 19.3205 23.3222 17.5879 20.9548 16.5931ZM14.5 3.99746C15.5754 3.99746 16.6267 4.33836 17.5209 4.97704C18.4151 5.61573 19.112 6.52352 19.5236 7.58561C19.9351 8.64771 20.0428 9.81641 19.833 10.9439C19.6232 12.0714 19.1053 13.1071 18.3449 13.92C17.5844 14.7329 16.6156 15.2865 15.5608 15.5108C14.506 15.7351 13.4127 15.6199 12.4192 15.18C11.4256 14.7401 10.5764 13.9951 9.97888 13.0392C9.3814 12.0834 9.0625 10.9596 9.0625 9.80996C9.0641 8.26891 9.63749 6.79147 10.6569 5.70179C11.6763 4.61211 13.0584 3.99917 14.5 3.99746ZM3.80556 27.2475C4.22669 25.0609 5.33995 23.0964 6.95777 21.6847C8.5756 20.2731 10.5991 19.5006 12.6875 19.4975H16.3125C18.4009 19.5006 20.4244 20.2731 22.0422 21.6847C23.6601 23.0964 24.7733 25.0609 25.1944 27.2475H3.80556Z" fill="#2F1F0C"/>
</svg>
